<?xml version="1.0" encoding="UTF-8" standalone="no"?>
<svg
   xmlns:dc="http://purl.org/dc/elements/1.1/"
   xmlns:cc="http://creativecommons.org/ns#"
   xmlns:rdf="http://www.w3.org/1999/02/22-rdf-syntax-ns#"
   xmlns:svg="http://www.w3.org/2000/svg"
   xmlns="http://www.w3.org/2000/svg"
   xmlns:sodipodi="http://sodipodi.sourceforge.net/DTD/sodipodi-0.dtd"
   xmlns:inkscape="http://www.inkscape.org/namespaces/inkscape"
   version="1.1"
   width="297mm"
   height="210mm"
   viewBox="0 0 297 210"
   id="svg21877"
   inkscape:version="0.48.4 r9939"
   sodipodi:docname="1x-bed-plate.svg">
  <metadata
     id="metadata21926">
    <rdf:RDF>
      <cc:Work
         rdf:about="">
        <dc:format>image/svg+xml</dc:format>
        <dc:type
           rdf:resource="http://purl.org/dc/dcmitype/StillImage" />
      </cc:Work>
    </rdf:RDF>
  </metadata>
  <defs
     id="defs21924" />
  <sodipodi:namedview
     pagecolor="#ffffff"
     bordercolor="#666666"
     borderopacity="1"
     objecttolerance="10"
     gridtolerance="10"
     guidetolerance="10"
     inkscape:pageopacity="0"
     inkscape:pageshadow="2"
     inkscape:window-width="1347"
     inkscape:window-height="819"
     id="namedview21922"
     showgrid="false"
     inkscape:zoom="0.89101588"
     inkscape:cx="350.53888"
     inkscape:cy="372.04724"
     inkscape:window-x="0"
     inkscape:window-y="24"
     inkscape:window-maximized="0"
     inkscape:current-layer="svg21877" />
  <!-- Working space 0 0 297 210 -->
  <g
     style="fill:none;stroke:#000000;stroke-width:0.28222223000000002;stroke-linecap:square;stroke-linejoin:miter;stroke-miterlimit:4;stroke-dasharray:none"
     id="g21880"
     transform="matrix(-1,0,0,1,150,100.5)">
    <path
       inkscape:connector-curvature="0"
       d="m 120,62.5 -240,0"
       id="1"
       style="stroke-width:0.28222223000000002;stroke-miterlimit:4;stroke-dasharray:none;stroke-linecap:square" />
    <path
       inkscape:connector-curvature="0"
       d="m 120,-62.5 0,125"
       id="2"
       style="stroke-width:0.28222223000000002;stroke-miterlimit:4;stroke-dasharray:none;stroke-linecap:square" />
    <path
       inkscape:connector-curvature="0"
       d="m -120,-62.5 0,125"
       id="3"
       style="stroke-width:0.28222223000000002;stroke-miterlimit:4;stroke-dasharray:none;stroke-linecap:square" />
    <path
       inkscape:connector-curvature="0"
       d="m 120,-62.5 -240,0"
       id="4"
       style="stroke-width:0.28222223000000002;stroke-miterlimit:4;stroke-dasharray:none;stroke-linecap:square" />
    <circle
       sodipodi:ry="1.5"
       sodipodi:rx="1.5"
       sodipodi:cy="-1.8651699e-14"
       sodipodi:cx="-12"
       d="m -10.5,0 c 0,0.82842712 -0.671573,1.5 -1.5,1.5 -0.828427,0 -1.5,-0.67157288 -1.5,-1.5 0,-0.82842712 0.671573,-1.5 1.5,-1.5 0.828427,0 1.5,0.67157288 1.5,1.5 z"
       id="circle21886"
       r="1.5"
       cy="-1.8651699e-14"
       cx="-12"
       style="stroke-width:0.28222223000000002;stroke-miterlimit:4;stroke-dasharray:none;stroke-linecap:square" />
    <circle
       sodipodi:ry="1.5"
       sodipodi:rx="1.5"
       sodipodi:cy="-1.8651699e-14"
       sodipodi:cx="12"
       d="m 13.5,0 c 0,0.82842712 -0.671573,1.5 -1.5,1.5 -0.828427,0 -1.5,-0.67157288 -1.5,-1.5 0,-0.82842712 0.671573,-1.5 1.5,-1.5 0.828427,0 1.5,0.67157288 1.5,1.5 z"
       id="circle21888"
       r="1.5"
       cy="-1.8651699e-14"
       cx="12"
       style="stroke-width:0.28222223000000002;stroke-miterlimit:4;stroke-dasharray:none;stroke-linecap:square" />
    <circle
       sodipodi:ry="2.5"
       sodipodi:rx="2.5"
       sodipodi:cy="-53.830002"
       sodipodi:cx="-77"
       d="m -74.5,-53.830002 c 0,1.380712 -1.119288,2.5 -2.5,2.5 -1.380712,0 -2.5,-1.119288 -2.5,-2.5 0,-1.380712 1.119288,-2.5 2.5,-2.5 1.380712,0 2.5,1.119288 2.5,2.5 z"
       id="circle21890"
       r="2.5"
       cy="-53.830002"
       cx="-77"
       style="stroke-width:0.28222223000000002;stroke-miterlimit:4;stroke-dasharray:none;stroke-linecap:square" />
    <circle
       sodipodi:ry="3.5"
       sodipodi:rx="3.5"
       sodipodi:cy="-54"
       sodipodi:cx="-100"
       d="m -96.5,-54 c 0,1.932997 -1.567003,3.5 -3.5,3.5 -1.933,0 -3.5,-1.567003 -3.5,-3.5 0,-1.932997 1.567,-3.5 3.5,-3.5 1.932997,0 3.5,1.567003 3.5,3.5 z"
       id="circle21892"
       r="3.5"
       cy="-54"
       cx="-100"
       style="stroke-width:0.28222223000000002;stroke-miterlimit:4;stroke-dasharray:none;stroke-linecap:square" />
    <circle
       sodipodi:ry="1.5"
       sodipodi:rx="1.5"
       sodipodi:cy="33"
       sodipodi:cx="68"
       d="m 69.5,33 c 0,0.828427 -0.671573,1.5 -1.5,1.5 -0.828427,0 -1.5,-0.671573 -1.5,-1.5 0,-0.828427 0.671573,-1.5 1.5,-1.5 0.828427,0 1.5,0.671573 1.5,1.5 z"
       id="circle21894"
       r="1.5"
       cy="33"
       cx="68"
       style="stroke-width:0.28222223000000002;stroke-miterlimit:4;stroke-dasharray:none;stroke-linecap:square" />
    <circle
       sodipodi:ry="1.5"
       sodipodi:rx="1.5"
       sodipodi:cy="33"
       sodipodi:cx="52"
       d="m 53.5,33 c 0,0.828427 -0.671573,1.5 -1.5,1.5 -0.828427,0 -1.5,-0.671573 -1.5,-1.5 0,-0.828427 0.671573,-1.5 1.5,-1.5 0.828427,0 1.5,0.671573 1.5,1.5 z"
       id="circle21896"
       r="1.5"
       cy="33"
       cx="52"
       style="stroke-width:0.28222223000000002;stroke-miterlimit:4;stroke-dasharray:none;stroke-linecap:square" />
    <circle
       sodipodi:ry="1.5"
       sodipodi:rx="1.5"
       sodipodi:cy="-33"
       sodipodi:cx="52"
       d="m 53.5,-33 c 0,0.828427 -0.671573,1.5 -1.5,1.5 -0.828427,0 -1.5,-0.671573 -1.5,-1.5 0,-0.828427 0.671573,-1.5 1.5,-1.5 0.828427,0 1.5,0.671573 1.5,1.5 z"
       id="circle21898"
       r="1.5"
       cy="-33"
       cx="52"
       style="stroke-width:0.28222223000000002;stroke-miterlimit:4;stroke-dasharray:none;stroke-linecap:square" />
    <circle
       sodipodi:ry="1.5"
       sodipodi:rx="1.5"
       sodipodi:cy="-33"
       sodipodi:cx="68"
       d="m 69.5,-33 c 0,0.828427 -0.671573,1.5 -1.5,1.5 -0.828427,0 -1.5,-0.671573 -1.5,-1.5 0,-0.828427 0.671573,-1.5 1.5,-1.5 0.828427,0 1.5,0.671573 1.5,1.5 z"
       id="circle21900"
       r="1.5"
       cy="-33"
       cx="68"
       style="stroke-width:0.28222223000000002;stroke-miterlimit:4;stroke-dasharray:none;stroke-linecap:square" />
    <circle
       sodipodi:ry="1.5"
       sodipodi:rx="1.5"
       sodipodi:cy="-33"
       sodipodi:cx="-52"
       d="m -50.5,-33 c 0,0.828427 -0.671573,1.5 -1.5,1.5 -0.828427,0 -1.5,-0.671573 -1.5,-1.5 0,-0.828427 0.671573,-1.5 1.5,-1.5 0.828427,0 1.5,0.671573 1.5,1.5 z"
       id="circle21902"
       r="1.5"
       cy="-33"
       cx="-52"
       style="stroke-width:0.28222223000000002;stroke-miterlimit:4;stroke-dasharray:none;stroke-linecap:square" />
    <circle
       sodipodi:ry="1.5"
       sodipodi:rx="1.5"
       sodipodi:cy="33"
       sodipodi:cx="-52"
       d="m -50.5,33 c 0,0.828427 -0.671573,1.5 -1.5,1.5 -0.828427,0 -1.5,-0.671573 -1.5,-1.5 0,-0.828427 0.671573,-1.5 1.5,-1.5 0.828427,0 1.5,0.671573 1.5,1.5 z"
       id="circle21904"
       r="1.5"
       cy="33"
       cx="-52"
       style="stroke-width:0.28222223000000002;stroke-miterlimit:4;stroke-dasharray:none;stroke-linecap:square" />
    <circle
       sodipodi:ry="1.5"
       sodipodi:rx="1.5"
       sodipodi:cy="-33"
       sodipodi:cx="-68"
       d="m -66.5,-33 c 0,0.828427 -0.671573,1.5 -1.5,1.5 -0.828427,0 -1.5,-0.671573 -1.5,-1.5 0,-0.828427 0.671573,-1.5 1.5,-1.5 0.828427,0 1.5,0.671573 1.5,1.5 z"
       id="circle21906"
       r="1.5"
       cy="-33"
       cx="-68"
       style="stroke-width:0.28222223000000002;stroke-miterlimit:4;stroke-dasharray:none;stroke-linecap:square" />
    <circle
       sodipodi:ry="1.5"
       sodipodi:rx="1.5"
       sodipodi:cy="33"
       sodipodi:cx="-68"
       d="m -66.5,33 c 0,0.828427 -0.671573,1.5 -1.5,1.5 -0.828427,0 -1.5,-0.671573 -1.5,-1.5 0,-0.828427 0.671573,-1.5 1.5,-1.5 0.828427,0 1.5,0.671573 1.5,1.5 z"
       id="circle21908"
       r="1.5"
       cy="33"
       cx="-68"
       style="stroke-width:0.28222223000000002;stroke-miterlimit:4;stroke-dasharray:none;stroke-linecap:square" />
    <circle
       sodipodi:ry="3.5"
       sodipodi:rx="3.5"
       sodipodi:cy="54"
       sodipodi:cx="-100"
       d="m -96.5,54 c 0,1.932997 -1.567003,3.5 -3.5,3.5 -1.933,0 -3.5,-1.567003 -3.5,-3.5 0,-1.932997 1.567,-3.5 3.5,-3.5 1.932997,0 3.5,1.567003 3.5,3.5 z"
       id="circle21910"
       r="3.5"
       cy="54"
       cx="-100"
       style="stroke-width:0.28222223000000002;stroke-miterlimit:4;stroke-dasharray:none;stroke-linecap:square" />
    <circle
       sodipodi:ry="2.5"
       sodipodi:rx="2.5"
       sodipodi:cy="53.830002"
       sodipodi:cx="-77"
       d="m -74.5,53.830002 c 0,1.380712 -1.119288,2.5 -2.5,2.5 -1.380712,0 -2.5,-1.119288 -2.5,-2.5 0,-1.380712 1.119288,-2.5 2.5,-2.5 1.380712,0 2.5,1.119288 2.5,2.5 z"
       id="circle21912"
       r="2.5"
       cy="53.830002"
       cx="-77"
       style="stroke-width:0.28222223000000002;stroke-miterlimit:4;stroke-dasharray:none;stroke-linecap:square" />
    <circle
       sodipodi:ry="2.5"
       sodipodi:rx="2.5"
       sodipodi:cy="53.830002"
       sodipodi:cx="77"
       d="m 79.5,53.830002 c 0,1.380712 -1.119288,2.5 -2.5,2.5 -1.380712,0 -2.5,-1.119288 -2.5,-2.5 0,-1.380712 1.119288,-2.5 2.5,-2.5 1.380712,0 2.5,1.119288 2.5,2.5 z"
       id="circle21914"
       r="2.5"
       cy="53.830002"
       cx="77"
       style="stroke-width:0.28222223000000002;stroke-miterlimit:4;stroke-dasharray:none;stroke-linecap:square" />
    <circle
       sodipodi:ry="3.5"
       sodipodi:rx="3.5"
       sodipodi:cy="54"
       sodipodi:cx="100"
       d="m 103.5,54 c 0,1.932997 -1.567,3.5 -3.5,3.5 -1.932997,0 -3.5,-1.567003 -3.5,-3.5 0,-1.932997 1.567003,-3.5 3.5,-3.5 1.933,0 3.5,1.567003 3.5,3.5 z"
       id="circle21916"
       r="3.5"
       cy="54"
       cx="100"
       style="stroke-width:0.28222223000000002;stroke-miterlimit:4;stroke-dasharray:none;stroke-linecap:square" />
    <circle
       sodipodi:ry="3.5"
       sodipodi:rx="3.5"
       sodipodi:cy="-54"
       sodipodi:cx="100"
       d="m 103.5,-54 c 0,1.932997 -1.567,3.5 -3.5,3.5 -1.932997,0 -3.5,-1.567003 -3.5,-3.5 0,-1.932997 1.567003,-3.5 3.5,-3.5 1.933,0 3.5,1.567003 3.5,3.5 z"
       id="circle21918"
       r="3.5"
       cy="-54"
       cx="100"
       style="stroke-width:0.28222223000000002;stroke-miterlimit:4;stroke-dasharray:none;stroke-linecap:square" />
    <circle
       sodipodi:ry="2.5"
       sodipodi:rx="2.5"
       sodipodi:cy="-53.830002"
       sodipodi:cx="77"
       d="m 79.5,-53.830002 c 0,1.380712 -1.119288,2.5 -2.5,2.5 -1.380712,0 -2.5,-1.119288 -2.5,-2.5 0,-1.380712 1.119288,-2.5 2.5,-2.5 1.380712,0 2.5,1.119288 2.5,2.5 z"
       id="circle21920"
       r="2.5"
       cy="-53.830002"
       cx="77"
       style="stroke-width:0.28222223000000002;stroke-miterlimit:4;stroke-dasharray:none;stroke-linecap:square" />
  </g>
  <text
     xml:space="preserve"
     style="font-size:6.20888901px;font-style:normal;font-variant:normal;font-weight:normal;font-stretch:normal;text-align:start;line-height:125%;letter-spacing:0px;word-spacing:0px;writing-mode:lr-tb;text-anchor:start;fill:#000000;fill-opacity:1;stroke:none;font-family:Arial;-inkscape-font-specification:Arial"
     x="229.1595"
     y="180.62732"
     id="text21681"
     sodipodi:linespacing="125%"><tspan
       y="180.62732"
       x="229.1595"
       sodipodi:role="line"
       id="tspan21727">NanoCNC</tspan><tspan
       y="188.38843"
       x="229.1595"
       sodipodi:role="line"
       id="tspan21729">bed plate</tspan><tspan
       y="196.14954"
       x="229.1595"
       sodipodi:role="line"
       id="tspan21731">MDF 240x125x10mm</tspan><tspan
       y="203.91066"
       x="229.1595"
       sodipodi:role="line"
       id="tspan21733">scale 1:1</tspan></text>
</svg>
