<?xml version="1.0" encoding="UTF-8" standalone="no"?>
<svg
   xmlns:dc="http://purl.org/dc/elements/1.1/"
   xmlns:cc="http://creativecommons.org/ns#"
   xmlns:rdf="http://www.w3.org/1999/02/22-rdf-syntax-ns#"
   xmlns:svg="http://www.w3.org/2000/svg"
   xmlns="http://www.w3.org/2000/svg"
   xmlns:sodipodi="http://sodipodi.sourceforge.net/DTD/sodipodi-0.dtd"
   xmlns:inkscape="http://www.inkscape.org/namespaces/inkscape"
   version="1.1"
   width="420mm"
   height="297mm"
   viewBox="0 0 420 297"
   id="svg22631"
   inkscape:version="0.48.4 r9939"
   sodipodi:docname="2x-front-back-sides.svg">
  <metadata
     id="metadata22710">
    <rdf:RDF>
      <cc:Work
         rdf:about="">
        <dc:format>image/svg+xml</dc:format>
        <dc:type
           rdf:resource="http://purl.org/dc/dcmitype/StillImage" />
      </cc:Work>
    </rdf:RDF>
  </metadata>
  <defs
     id="defs22708" />
  <sodipodi:namedview
     pagecolor="#ffffff"
     bordercolor="#666666"
     borderopacity="1"
     objecttolerance="10"
     gridtolerance="10"
     guidetolerance="10"
     inkscape:pageopacity="0"
     inkscape:pageshadow="2"
     inkscape:window-width="1561"
     inkscape:window-height="822"
     id="namedview22706"
     showgrid="false"
     inkscape:zoom="0.63286197"
     inkscape:cx="744.09448"
     inkscape:cy="526.18109"
     inkscape:window-x="0"
     inkscape:window-y="24"
     inkscape:window-maximized="0"
     inkscape:current-layer="svg22631" />
  <!-- Working space 0 0 420 297 -->
  <g
     id="Ortho_0_001"
     transform="rotate(-90,210,148.5) translate(210,148.5) scale(1,1)"
     style="stroke-width:0.28222223000000002;stroke-miterlimit:4;stroke-dasharray:none;stroke-linecap:square">
    <g
       stroke="rgb(0, 0, 0)"
       stroke-width="0.35"
       stroke-linecap="butt"
       stroke-linejoin="miter"
       fill="none"
       transform="scale(1,-1)"
       id="g22634"
       style="stroke-width:0.28222223000000002;stroke-miterlimit:4;stroke-dasharray:none;stroke-linecap:square">
      <path
         id="1"
         d=" M -125 -125 L -125 125 "
         style="stroke-width:0.28222223000000002;stroke-miterlimit:4;stroke-dasharray:none;stroke-linecap:square" />
      <path
         id="2"
         d=" M -125 125 L 125 125 "
         style="stroke-width:0.28222223000000002;stroke-miterlimit:4;stroke-dasharray:none;stroke-linecap:square" />
      <path
         id="3"
         d=" M 125 125 L 125 -125 "
         style="stroke-width:0.28222223000000002;stroke-miterlimit:4;stroke-dasharray:none;stroke-linecap:square" />
      <path
         id="4"
         d=" M 125 -125 L -125 -125 "
         style="stroke-width:0.28222223000000002;stroke-miterlimit:4;stroke-dasharray:none;stroke-linecap:square" />
      <circle
         cx="-100"
         cy="0"
         r="12"
         id="circle22640"
         d="m -88,0 c 0,6.627417 -5.372583,12 -12,12 -6.62742,0 -12,-5.372583 -12,-12 0,-6.627417 5.37258,-12 12,-12 6.627417,0 12,5.372583 12,12 z"
         style="stroke-width:0.28222223000000002;stroke-miterlimit:4;stroke-dasharray:none;stroke-linecap:square" />
      <circle
         cx="-100"
         cy="60"
         r="3"
         id="circle22642"
         d="m -97,60 c 0,1.656854 -1.343146,3 -3,3 -1.65685,0 -3,-1.343146 -3,-3 0,-1.656854 1.34315,-3 3,-3 1.656854,0 3,1.343146 3,3 z"
         style="stroke-width:0.28222223000000002;stroke-miterlimit:4;stroke-dasharray:none;stroke-linecap:square" />
      <circle
         cx="-100"
         cy="-60"
         r="3"
         id="circle22644"
         d="m -97,-60 c 0,1.656854 -1.343146,3 -3,3 -1.65685,0 -3,-1.343146 -3,-3 0,-1.656854 1.34315,-3 3,-3 1.656854,0 3,1.343146 3,3 z"
         style="stroke-width:0.28222223000000002;stroke-miterlimit:4;stroke-dasharray:none;stroke-linecap:square" />
      <circle
         cx="-100"
         cy="110"
         r="3"
         id="circle22646"
         d="m -97,110 c 0,1.65685 -1.343146,3 -3,3 -1.65685,0 -3,-1.34315 -3,-3 0,-1.65685 1.34315,-3 3,-3 1.656854,0 3,1.34315 3,3 z"
         style="stroke-width:0.28222223000000002;stroke-miterlimit:4;stroke-dasharray:none;stroke-linecap:square" />
      <circle
         cx="-100"
         cy="-110"
         r="3"
         id="circle22648"
         d="m -97,-110 c 0,1.65685 -1.343146,3 -3,3 -1.65685,0 -3,-1.34315 -3,-3 0,-1.65685 1.34315,-3 3,-3 1.656854,0 3,1.34315 3,3 z"
         style="stroke-width:0.28222223000000002;stroke-miterlimit:4;stroke-dasharray:none;stroke-linecap:square" />
      <circle
         cx="100"
         cy="110"
         r="3"
         id="circle22650"
         d="m 103,110 c 0,1.65685 -1.34315,3 -3,3 -1.656854,0 -3,-1.34315 -3,-3 0,-1.65685 1.343146,-3 3,-3 1.65685,0 3,1.34315 3,3 z"
         style="stroke-width:0.28222223000000002;stroke-miterlimit:4;stroke-dasharray:none;stroke-linecap:square" />
      <circle
         cx="100"
         cy="-110"
         r="3"
         id="circle22652"
         d="m 103,-110 c 0,1.65685 -1.34315,3 -3,3 -1.656854,0 -3,-1.34315 -3,-3 0,-1.65685 1.343146,-3 3,-3 1.65685,0 3,1.34315 3,3 z"
         style="stroke-width:0.28222223000000002;stroke-miterlimit:4;stroke-dasharray:none;stroke-linecap:square" />
      <circle
         cx="-113"
         cy="-13"
         r="1.5"
         id="circle22654"
         d="m -111.5,-13 c 0,0.828427 -0.67157,1.5 -1.5,1.5 -0.82843,0 -1.5,-0.671573 -1.5,-1.5 0,-0.828427 0.67157,-1.5 1.5,-1.5 0.82843,0 1.5,0.671573 1.5,1.5 z"
         style="stroke-width:0.28222223000000002;stroke-miterlimit:4;stroke-dasharray:none;stroke-linecap:square" />
      <circle
         cx="-113"
         cy="13"
         r="1.5"
         id="circle22656"
         d="m -111.5,13 c 0,0.828427 -0.67157,1.5 -1.5,1.5 -0.82843,0 -1.5,-0.671573 -1.5,-1.5 0,-0.828427 0.67157,-1.5 1.5,-1.5 0.82843,0 1.5,0.671573 1.5,1.5 z"
         style="stroke-width:0.28222223000000002;stroke-miterlimit:4;stroke-dasharray:none;stroke-linecap:square" />
      <circle
         cx="-87"
         cy="13"
         r="1.5"
         id="circle22658"
         d="m -85.5,13 c 0,0.828427 -0.671573,1.5 -1.5,1.5 -0.828427,0 -1.5,-0.671573 -1.5,-1.5 0,-0.828427 0.671573,-1.5 1.5,-1.5 0.828427,0 1.5,0.671573 1.5,1.5 z"
         style="stroke-width:0.28222223000000002;stroke-miterlimit:4;stroke-dasharray:none;stroke-linecap:square" />
      <circle
         cx="-87"
         cy="-13"
         r="1.5"
         id="circle22660"
         d="m -85.5,-13 c 0,0.828427 -0.671573,1.5 -1.5,1.5 -0.828427,0 -1.5,-0.671573 -1.5,-1.5 0,-0.828427 0.671573,-1.5 1.5,-1.5 0.828427,0 1.5,0.671573 1.5,1.5 z"
         style="stroke-width:0.28222223000000002;stroke-miterlimit:4;stroke-dasharray:none;stroke-linecap:square" />
    </g>
  </g>
  <g
     style="fill:none;stroke:#000000;stroke-width:0.28222223000000002;stroke-linecap:square;stroke-linejoin:miter;stroke-miterlimit:4;stroke-dasharray:none"
     id="g22663"
     transform="matrix(0,1,1,0,210,348.5)">
    <path
       inkscape:connector-curvature="0"
       d="m -125,125 0,-250"
       id="path22665"
       style="stroke-width:0.28222223000000002;stroke-miterlimit:4;stroke-dasharray:none;stroke-linecap:square" />
    <path
       inkscape:connector-curvature="0"
       d="m -125,-125 50,0"
       id="path22667"
       style="stroke-width:0.28222223000000002;stroke-miterlimit:4;stroke-dasharray:none;stroke-linecap:square" />
    <path
       inkscape:connector-curvature="0"
       d="m -75,-125 0,250"
       id="path22669"
       style="stroke-width:0.28222223000000002;stroke-miterlimit:4;stroke-dasharray:none;stroke-linecap:square" />
    <path
       inkscape:connector-curvature="0"
       d="m -75,125 -50,0"
       id="path22671"
       style="stroke-width:0.28222223000000002;stroke-miterlimit:4;stroke-dasharray:none;stroke-linecap:square" />
    <circle
       sodipodi:ry="12"
       sodipodi:rx="12"
       sodipodi:cy="7.36038e-15"
       sodipodi:cx="-100"
       d="m -88,0 c 0,6.627417 -5.372583,12 -12,12 -6.62742,0 -12,-5.372583 -12,-12 0,-6.627417 5.37258,-12 12,-12 6.627417,0 12,5.372583 12,12 z"
       id="circle22673"
       r="12"
       cy="7.36038e-15"
       cx="-100"
       style="stroke-width:0.28222223000000002;stroke-miterlimit:4;stroke-dasharray:none;stroke-linecap:square" />
    <circle
       sodipodi:ry="3"
       sodipodi:rx="3"
       sodipodi:cy="-60"
       sodipodi:cx="-100"
       d="m -97,-60 c 0,1.656854 -1.343146,3 -3,3 -1.65685,0 -3,-1.343146 -3,-3 0,-1.656854 1.34315,-3 3,-3 1.656854,0 3,1.343146 3,3 z"
       id="circle22675"
       r="3"
       cy="-60"
       cx="-100"
       style="stroke-width:0.28222223000000002;stroke-miterlimit:4;stroke-dasharray:none;stroke-linecap:square" />
    <circle
       sodipodi:ry="3"
       sodipodi:rx="3"
       sodipodi:cy="60"
       sodipodi:cx="-100"
       d="m -97,60 c 0,1.656854 -1.343146,3 -3,3 -1.65685,0 -3,-1.343146 -3,-3 0,-1.656854 1.34315,-3 3,-3 1.656854,0 3,1.343146 3,3 z"
       id="circle22677"
       r="3"
       cy="60"
       cx="-100"
       style="stroke-width:0.28222223000000002;stroke-miterlimit:4;stroke-dasharray:none;stroke-linecap:square" />
    <circle
       sodipodi:ry="3"
       sodipodi:rx="3"
       sodipodi:cy="-110"
       sodipodi:cx="-100"
       d="m -97,-110 c 0,1.65685 -1.343146,3 -3,3 -1.65685,0 -3,-1.34315 -3,-3 0,-1.65685 1.34315,-3 3,-3 1.656854,0 3,1.34315 3,3 z"
       id="circle22679"
       r="3"
       cy="-110"
       cx="-100"
       style="stroke-width:0.28222223000000002;stroke-miterlimit:4;stroke-dasharray:none;stroke-linecap:square" />
    <circle
       sodipodi:ry="3"
       sodipodi:rx="3"
       sodipodi:cy="110"
       sodipodi:cx="-100"
       d="m -97,110 c 0,1.65685 -1.343146,3 -3,3 -1.65685,0 -3,-1.34315 -3,-3 0,-1.65685 1.34315,-3 3,-3 1.656854,0 3,1.34315 3,3 z"
       id="circle22681"
       r="3"
       cy="110"
       cx="-100"
       style="stroke-width:0.28222223000000002;stroke-miterlimit:4;stroke-dasharray:none;stroke-linecap:square" />
    <circle
       sodipodi:ry="1.5"
       sodipodi:rx="1.5"
       sodipodi:cy="-13"
       sodipodi:cx="-113"
       d="m -111.5,-13 c 0,0.828427 -0.67157,1.5 -1.5,1.5 -0.82843,0 -1.5,-0.671573 -1.5,-1.5 0,-0.828427 0.67157,-1.5 1.5,-1.5 0.82843,0 1.5,0.671573 1.5,1.5 z"
       id="circle22683"
       r="1.5"
       cy="-13"
       cx="-113"
       style="stroke-width:0.28222223000000002;stroke-miterlimit:4;stroke-dasharray:none;stroke-linecap:square" />
    <circle
       sodipodi:ry="1.5"
       sodipodi:rx="1.5"
       sodipodi:cy="13"
       sodipodi:cx="-113"
       d="m -111.5,13 c 0,0.828427 -0.67157,1.5 -1.5,1.5 -0.82843,0 -1.5,-0.671573 -1.5,-1.5 0,-0.828427 0.67157,-1.5 1.5,-1.5 0.82843,0 1.5,0.671573 1.5,1.5 z"
       id="circle22685"
       r="1.5"
       cy="13"
       cx="-113"
       style="stroke-width:0.28222223000000002;stroke-miterlimit:4;stroke-dasharray:none;stroke-linecap:square" />
    <circle
       sodipodi:ry="1.5"
       sodipodi:rx="1.5"
       sodipodi:cy="-13"
       sodipodi:cx="-87"
       d="m -85.5,-13 c 0,0.828427 -0.671573,1.5 -1.5,1.5 -0.828427,0 -1.5,-0.671573 -1.5,-1.5 0,-0.828427 0.671573,-1.5 1.5,-1.5 0.828427,0 1.5,0.671573 1.5,1.5 z"
       id="circle22687"
       r="1.5"
       cy="-13"
       cx="-87"
       style="stroke-width:0.28222223000000002;stroke-miterlimit:4;stroke-dasharray:none;stroke-linecap:square" />
    <circle
       sodipodi:ry="1.5"
       sodipodi:rx="1.5"
       sodipodi:cy="13"
       sodipodi:cx="-87"
       d="m -85.5,13 c 0,0.828427 -0.671573,1.5 -1.5,1.5 -0.828427,0 -1.5,-0.671573 -1.5,-1.5 0,-0.828427 0.671573,-1.5 1.5,-1.5 0.828427,0 1.5,0.671573 1.5,1.5 z"
       id="circle22689"
       r="1.5"
       cy="13"
       cx="-87"
       style="stroke-width:0.28222223000000002;stroke-miterlimit:4;stroke-dasharray:none;stroke-linecap:square" />
  </g>
  <g
     id="Ortho_0_003"
     transform="rotate(90,210,148.5) translate(210,148.5) scale(1,1)"
     style="stroke-width:0.28222223000000002;stroke-miterlimit:4;stroke-dasharray:none;stroke-linecap:square">
    <g
       stroke="rgb(0, 0, 0)"
       stroke-width="0.35"
       stroke-linecap="butt"
       stroke-linejoin="miter"
       fill="none"
       transform="scale(1,-1)"
       id="g22692"
       style="stroke-width:0.28222223000000002;stroke-miterlimit:4;stroke-dasharray:none;stroke-linecap:square">
      <path
         id="path22694"
         d=" M -75 125 L -75 -125 "
         style="stroke-width:0.28222223000000002;stroke-miterlimit:4;stroke-dasharray:none;stroke-linecap:square" />
      <path
         id="path22696"
         d=" M -75 -125 L -125 -125 "
         style="stroke-width:0.28222223000000002;stroke-miterlimit:4;stroke-dasharray:none;stroke-linecap:square" />
      <path
         id="path22698"
         d=" M -125 -125 L -125 125 "
         style="stroke-width:0.28222223000000002;stroke-miterlimit:4;stroke-dasharray:none;stroke-linecap:square" />
      <path
         id="path22700"
         d=" M -125 125 L -75 125 "
         style="stroke-width:0.28222223000000002;stroke-miterlimit:4;stroke-dasharray:none;stroke-linecap:square" />
      <circle
         cx="-100"
         cy="-110"
         r="3"
         id="circle22702"
         d="m -97,-110 c 0,1.65685 -1.343146,3 -3,3 -1.65685,0 -3,-1.34315 -3,-3 0,-1.65685 1.34315,-3 3,-3 1.656854,0 3,1.34315 3,3 z"
         style="stroke-width:0.28222223000000002;stroke-miterlimit:4;stroke-dasharray:none;stroke-linecap:square" />
      <circle
         cx="-100"
         cy="110"
         r="3"
         id="circle22704"
         d="m -97,110 c 0,1.65685 -1.343146,3 -3,3 -1.65685,0 -3,-1.34315 -3,-3 0,-1.65685 1.34315,-3 3,-3 1.656854,0 3,1.34315 3,3 z"
         style="stroke-width:0.28222223000000002;stroke-miterlimit:4;stroke-dasharray:none;stroke-linecap:square" />
    </g>
  </g>
  <text
     xml:space="preserve"
     style="font-size:5.64444456px;font-style:normal;font-variant:normal;font-weight:normal;font-stretch:normal;text-align:start;line-height:125%;letter-spacing:0px;word-spacing:0px;writing-mode:lr;text-anchor:start;fill:#000000;fill-opacity:1;stroke:none;font-family:Arial;-inkscape-font-specification:Arial"
     x="348.12546"
     y="23.136131"
     id="text21681"
     sodipodi:linespacing="125%"><tspan
       sodipodi:role="line"
       id="tspan23272">NanoCNC</tspan><tspan
       sodipodi:role="line"
       id="tspan23274">front/back sides 2X</tspan><tspan
       sodipodi:role="line"
       id="tspan23276">MDF 250x250x10mm</tspan><tspan
       sodipodi:role="line"
       id="tspan23278">scale 1:1</tspan><tspan
       sodipodi:role="line"
       id="tspan23280">cut back/front side and drill </tspan><tspan
       sodipodi:role="line"
       id="tspan23282">cut front side, keep the</tspan><tspan
       sodipodi:role="line"
       id="tspan23284">wood for the bed plate</tspan></text>
</svg>
